<svg width="73" height="71" viewBox="0 0 73 71" fill="none" xmlns="http://www.w3.org/2000/svg">
<path d="M17.68 26.224C19.92 26.224 21.68 25.456 22.96 23.92C24.304 22.384 24.976 20.176 24.976 17.296C24.976 14.48 24.304 12.304 22.96 10.768C21.68 9.168 19.92 8.368 17.68 8.368C15.44 8.368 13.648 9.136 12.304 10.672C10.96 12.208 10.288 14.416 10.288 17.296C10.288 20.24 10.96 22.48 12.304 24.016C13.648 25.488 15.44 26.224 17.68 26.224ZM17.584 34C15.216 34 13.008 33.584 10.96 32.752C8.976 31.92 7.216 30.768 5.68 29.296C4.208 27.76 3.024 26 2.128 24.016C1.296 21.968 0.88 19.76 0.88 17.392C0.88 15.024 1.328 12.816 2.224 10.768C3.12 8.72 4.304 6.96 5.776 5.488C7.312 3.952 9.104 2.768 11.152 1.936C13.2 1.10399 15.376 0.687994 17.68 0.687994C19.984 0.687994 22.128 1.10399 24.112 1.936C26.16 2.768 27.92 3.92 29.392 5.392C30.928 6.8 32.112 8.528 32.944 10.576C33.84 12.624 34.288 14.832 34.288 17.2C34.288 19.632 33.84 21.872 32.944 23.92C32.112 25.968 30.928 27.76 29.392 29.296C27.92 30.768 26.16 31.92 24.112 32.752C22.128 33.584 19.952 34 17.584 34ZM54.544 1.36H62.608L18.448 70H10.288L54.544 1.36ZM55.312 63.184C57.552 63.184 59.312 62.416 60.592 60.88C61.936 59.344 62.608 57.136 62.608 54.256C62.608 51.44 61.936 49.264 60.592 47.728C59.312 46.128 57.552 45.328 55.312 45.328C53.072 45.328 51.28 46.096 49.936 47.632C48.592 49.168 47.92 51.376 47.92 54.256C47.92 57.2 48.592 59.44 49.936 60.976C51.28 62.448 53.072 63.184 55.312 63.184ZM55.216 70.96C52.848 70.96 50.64 70.544 48.592 69.712C46.608 68.88 44.848 67.728 43.312 66.256C41.84 64.72 40.688 62.96 39.856 60.976C39.024 58.928 38.608 56.72 38.608 54.352C38.608 51.984 39.024 49.776 39.856 47.728C40.752 45.68 41.968 43.92 43.504 42.448C45.04 40.912 46.8 39.728 48.784 38.896C50.832 38.064 53.008 37.648 55.312 37.648C57.616 37.648 59.76 38.064 61.744 38.896C63.792 39.728 65.584 40.88 67.12 42.352C68.656 43.76 69.84 45.488 70.672 47.536C71.568 49.584 72.016 51.792 72.016 54.16C72.016 56.592 71.568 58.832 70.672 60.88C69.84 62.928 68.656 64.72 67.12 66.256C65.648 67.728 63.888 68.88 61.84 69.712C59.792 70.544 57.584 70.96 55.216 70.96Z" fill="#E7E7E7"/>
</svg>
