<svg width="180" height="39" viewBox="0 0 180 39" fill="none" xmlns="http://www.w3.org/2000/svg">
<g clip-path="url(#clip0_199_428)">
<path d="M146.241 23.6614C144.881 23.6614 143.771 24.7734 143.771 26.1605C143.771 27.5476 144.87 28.6596 146.241 28.6596C147.612 28.6596 148.71 27.5476 148.71 26.1605C148.71 24.7734 147.612 23.6614 146.241 23.6614Z" fill="#80A9AA"/>
<path d="M176.295 11.0625V19.8553C176.295 22.8244 174.302 25.1974 171.492 25.1974C168.683 25.1974 167.437 23.3059 167.391 20.4743V11.0625H163.675V20.1419C163.721 25.0484 165.93 28.6595 170.79 28.6595C173.316 28.6595 175.14 27.2838 176.295 25.1974H176.998L176.295 28.3041H180.011V11.0625H176.295Z" fill="#80A9AA"/>
<path d="M118.474 10.7073C113.58 10.7073 109.604 14.7311 109.604 19.6835C109.604 24.6358 113.58 28.6597 118.474 28.6597C123.368 28.6597 127.345 24.6358 127.345 19.6835C127.345 14.7311 123.368 10.7073 118.474 10.7073ZM118.474 25.1861C115.631 25.1861 113.32 22.7214 113.32 19.672C113.32 16.6226 115.631 14.1579 118.474 14.1579C121.318 14.1579 123.629 16.6226 123.629 19.672C123.629 22.7214 121.318 25.1861 118.474 25.1861Z" fill="#80A9AA"/>
<path d="M79.3454 10.7073C76.8191 10.7073 74.644 12.0944 73.4885 14.1693H72.7861L73.4885 11.0626V3.67993H69.7727V28.3043H73.4885L72.7861 25.1976H73.4885C74.6553 27.284 76.8191 28.6596 79.3454 28.6596C84.2393 28.6596 87.5133 24.6358 87.5133 19.6835C87.5133 14.7311 84.2393 10.7073 79.3454 10.7073ZM78.643 25.1861C75.7995 25.1861 73.4885 22.7099 73.4885 19.672C73.4885 16.6341 75.7995 14.1579 78.643 14.1579C81.4865 14.1579 83.7975 16.6341 83.7975 19.672C83.7975 22.7099 81.4865 25.1861 78.643 25.1861Z" fill="#80A9AA"/>
<path d="M103.589 11.0626L104.291 14.1693H103.589C102.422 12.0829 100.258 10.7073 97.7318 10.7073C92.8378 10.7073 89.5638 14.7311 89.5638 19.6835C89.5638 24.6358 92.8378 28.6596 97.7318 28.6596C100.258 28.6596 102.433 27.2725 103.589 25.1976H104.291L103.589 28.3043H107.304V3.67993H103.589V11.0626ZM98.4341 25.1861C95.5907 25.1861 93.2796 22.7099 93.2796 19.672C93.2796 16.6341 95.5907 14.1579 98.4341 14.1579C101.278 14.1579 103.589 16.6341 103.589 19.672C103.589 22.7099 101.278 25.1861 98.4341 25.1861Z" fill="#80A9AA"/>
<path d="M58.9539 14.1693C61.2536 14.1693 63.2022 15.7857 63.8705 18.0097L67.473 17.1729C66.3968 13.4357 62.9982 10.6958 58.9653 10.6958C54.0713 10.6958 50.095 14.7196 50.095 19.672C50.095 24.6244 54.0713 28.6482 58.9653 28.6482C63.0096 28.6482 66.4081 25.9083 67.473 22.1711L63.8705 21.3342C63.2135 23.5582 61.2536 25.1746 58.9539 25.1746C56.1105 25.1746 53.7994 22.7099 53.7994 19.6605C53.7994 16.6111 56.1105 14.1464 58.9539 14.1464V14.1693Z" fill="#80A9AA"/>
<path d="M133.371 11.0625H129.656V28.3041H133.371V11.0625Z" fill="#80A9AA"/>
<path d="M141.041 3.67993H137.325V28.3043H141.041V3.67993Z" fill="#80A9AA"/>
<path d="M131.514 3.04932L129.769 4.81475C128.806 5.78918 128.806 7.37119 129.769 8.34561C130.732 9.32004 132.295 9.32004 133.258 8.34561C134.221 7.37119 134.221 5.78918 133.258 4.81475L131.514 3.04932Z" fill="#80A9AA"/>
<path d="M155.145 14.5247H154.443L155.145 11.418H151.429V28.6596H155.145V19.8668C155.145 16.5423 157.513 14.6279 161.353 15.2584V11.0626C158.317 11.0167 156.3 12.4383 155.145 14.5247Z" fill="#80A9AA"/>
<path d="M30.8364 0H7.70344C3.44895 0 0 3.49013 0 7.79541V31.2046C0 35.5099 3.44895 39 7.70344 39H30.8364C35.0909 39 38.5399 35.5099 38.5399 31.2046V7.79541C38.5399 3.49013 35.0909 0 30.8364 0Z" fill="#80A9AA"/>
<path d="M24.9456 14.7883L19.27 9.04492L13.5944 14.7883C10.4563 17.9638 10.4563 23.0996 13.5944 26.2751C16.7324 29.4506 21.8076 29.4506 24.9456 26.2751C28.0836 23.0996 28.0836 17.9638 24.9456 14.7883Z" fill="white"/>
</g>
<defs>
<clipPath id="clip0_199_428">
<rect width="180" height="39" fill="white"/>
</clipPath>
</defs>
</svg>
