<svg width="159" height="35" viewBox="0 0 159 35" fill="none" xmlns="http://www.w3.org/2000/svg">
<g id="layer" clip-path="url(#clip0_224_353)">
<g id="Group">
<path id="Vector" d="M129.09 20.64C127.89 20.64 126.91 21.61 126.91 22.82C126.91 24.03 127.88 25 129.09 25C130.3 25 131.27 24.03 131.27 22.82C131.27 21.61 130.3 20.64 129.09 20.64Z" fill="#80A9AA"/>
<path id="Vector_2" d="M155.62 9.64999V17.32C155.62 19.91 153.86 21.98 151.38 21.98C148.9 21.98 147.8 20.33 147.76 17.86V9.64999H144.48V17.57C144.52 21.85 146.47 25 150.76 25C152.99 25 154.6 23.8 155.62 21.98H156.24L155.62 24.69H158.9V9.64999H155.62Z" fill="#80A9AA"/>
<path id="Vector_3" d="M104.58 9.34C100.26 9.34 96.75 12.85 96.75 17.17C96.75 21.49 100.26 25 104.58 25C108.9 25 112.41 21.49 112.41 17.17C112.41 12.85 108.9 9.34 104.58 9.34ZM104.58 21.97C102.07 21.97 100.03 19.82 100.03 17.16C100.03 14.5 102.07 12.35 104.58 12.35C107.09 12.35 109.13 14.5 109.13 17.16C109.13 19.82 107.09 21.97 104.58 21.97Z" fill="#80A9AA"/>
<path id="Vector_4" d="M70.0403 9.33999C67.8103 9.33999 65.8903 10.55 64.8703 12.36H64.2503L64.8703 9.64999V3.20999H61.5903V24.69H64.8703L64.2503 21.98H64.8703C65.9003 23.8 67.8103 25 70.0403 25C74.3603 25 77.2503 21.49 77.2503 17.17C77.2503 12.85 74.3603 9.33999 70.0403 9.33999ZM69.4203 21.97C66.9103 21.97 64.8703 19.81 64.8703 17.16C64.8703 14.51 66.9103 12.35 69.4203 12.35C71.9303 12.35 73.9703 14.51 73.9703 17.16C73.9703 19.81 71.9303 21.97 69.4203 21.97Z" fill="#80A9AA"/>
<path id="Vector_5" d="M91.4401 9.64999L92.0601 12.36H91.4401C90.4101 10.54 88.5001 9.33999 86.2701 9.33999C81.9501 9.33999 79.0601 12.85 79.0601 17.17C79.0601 21.49 81.9501 25 86.2701 25C88.5001 25 90.4201 23.79 91.4401 21.98H92.0601L91.4401 24.69H94.7201V3.20999H91.4401V9.64999ZM86.8901 21.97C84.3801 21.97 82.3401 19.81 82.3401 17.16C82.3401 14.51 84.3801 12.35 86.8901 12.35C89.4001 12.35 91.4401 14.51 91.4401 17.16C91.4401 19.81 89.4001 21.97 86.8901 21.97Z" fill="#80A9AA"/>
<path id="Vector_6" d="M52.0402 12.36C54.0702 12.36 55.7902 13.77 56.3802 15.71L59.5602 14.98C58.6102 11.72 55.6102 9.33002 52.0502 9.33002C47.7302 9.33002 44.2202 12.84 44.2202 17.16C44.2202 21.48 47.7302 24.99 52.0502 24.99C55.6202 24.99 58.6202 22.6 59.5602 19.34L56.3802 18.61C55.8002 20.55 54.0702 21.96 52.0402 21.96C49.5302 21.96 47.4902 19.81 47.4902 17.15C47.4902 14.49 49.5302 12.34 52.0402 12.34V12.36Z" fill="#80A9AA"/>
<path id="Vector_7" d="M117.73 9.64999H114.45V24.69H117.73V9.64999Z" fill="#80A9AA"/>
<path id="Vector_8" d="M124.5 3.20999H121.22V24.69H124.5V3.20999Z" fill="#80A9AA"/>
<path id="Vector_9" d="M116.09 2.66L114.55 4.2C113.7 5.05 113.7 6.43 114.55 7.28C115.4 8.13 116.78 8.13 117.63 7.28C118.48 6.43 118.48 5.05 117.63 4.2L116.09 2.66Z" fill="#80A9AA"/>
<path id="Vector_10" d="M136.95 12.67H136.33L136.95 9.95999H133.67V25H136.95V17.33C136.95 14.43 139.04 12.76 142.43 13.31V9.64999C139.75 9.60999 137.97 10.85 136.95 12.67Z" fill="#80A9AA"/>
</g>
<g id="Group_2">
<path id="Vector_11" d="M27.22 0H6.8C3.04446 0 0 3.04446 0 6.8V27.22C0 30.9755 3.04446 34.02 6.8 34.02H27.22C30.9755 34.02 34.02 30.9755 34.02 27.22V6.8C34.02 3.04446 30.9755 0 27.22 0Z" fill="#80A9AA"/>
<path id="Vector_12" d="M22.0199 12.9L17.0099 7.89001L11.9999 12.9C9.22986 15.67 9.22986 20.15 11.9999 22.92C14.7699 25.69 19.2499 25.69 22.0199 22.92C24.7899 20.15 24.7899 15.67 22.0199 12.9Z" fill="white"/>
</g>
</g>
<defs>
<clipPath id="clip0_224_353">
<rect width="158.89" height="34.02" fill="white"/>
</clipPath>
</defs>
</svg>
