<svg width="159" height="35" viewBox="0 0 159 35" fill="none" xmlns="http://www.w3.org/2000/svg">
<g clip-path="url(#clip0_199_413)">
<path d="M129.09 20.64C127.89 20.64 126.91 21.61 126.91 22.82C126.91 24.03 127.88 25 129.09 25C130.3 25 131.27 24.03 131.27 22.82C131.27 21.61 130.3 20.64 129.09 20.64Z" fill="white"/>
<path d="M155.62 9.64999V17.32C155.62 19.91 153.86 21.98 151.38 21.98C148.9 21.98 147.8 20.33 147.76 17.86V9.64999H144.48V17.57C144.52 21.85 146.47 25 150.76 25C152.99 25 154.6 23.8 155.62 21.98H156.24L155.62 24.69H158.9V9.64999H155.62Z" fill="white"/>
<path d="M104.58 9.34C100.26 9.34 96.75 12.85 96.75 17.17C96.75 21.49 100.26 25 104.58 25C108.9 25 112.41 21.49 112.41 17.17C112.41 12.85 108.9 9.34 104.58 9.34ZM104.58 21.97C102.07 21.97 100.03 19.82 100.03 17.16C100.03 14.5 102.07 12.35 104.58 12.35C107.09 12.35 109.13 14.5 109.13 17.16C109.13 19.82 107.09 21.97 104.58 21.97Z" fill="white"/>
<path d="M70.04 9.33999C67.81 9.33999 65.89 10.55 64.87 12.36H64.25L64.87 9.64999V3.20999H61.59V24.69H64.87L64.25 21.98H64.87C65.9 23.8 67.81 25 70.04 25C74.36 25 77.25 21.49 77.25 17.17C77.25 12.85 74.36 9.33999 70.04 9.33999ZM69.42 21.97C66.91 21.97 64.87 19.81 64.87 17.16C64.87 14.51 66.91 12.35 69.42 12.35C71.93 12.35 73.97 14.51 73.97 17.16C73.97 19.81 71.93 21.97 69.42 21.97Z" fill="white"/>
<path d="M91.4399 9.64999L92.0599 12.36H91.4399C90.4099 10.54 88.4999 9.33999 86.2699 9.33999C81.9499 9.33999 79.0599 12.85 79.0599 17.17C79.0599 21.49 81.9499 25 86.2699 25C88.4999 25 90.4199 23.79 91.4399 21.98H92.0599L91.4399 24.69H94.7199V3.20999H91.4399V9.64999ZM86.8899 21.97C84.3799 21.97 82.3399 19.81 82.3399 17.16C82.3399 14.51 84.3799 12.35 86.8899 12.35C89.3999 12.35 91.4399 14.51 91.4399 17.16C91.4399 19.81 89.3999 21.97 86.8899 21.97Z" fill="white"/>
<path d="M52.04 12.36C54.07 12.36 55.79 13.77 56.38 15.71L59.56 14.98C58.61 11.72 55.61 9.33002 52.05 9.33002C47.73 9.33002 44.22 12.84 44.22 17.16C44.22 21.48 47.73 24.99 52.05 24.99C55.62 24.99 58.62 22.6 59.56 19.34L56.38 18.61C55.8 20.55 54.07 21.96 52.04 21.96C49.53 21.96 47.49 19.81 47.49 17.15C47.49 14.49 49.53 12.34 52.04 12.34V12.36Z" fill="white"/>
<path d="M117.73 9.64999H114.45V24.69H117.73V9.64999Z" fill="white"/>
<path d="M124.5 3.20999H121.22V24.69H124.5V3.20999Z" fill="white"/>
<path d="M116.09 2.66L114.55 4.2C113.7 5.05 113.7 6.43 114.55 7.28C115.4 8.13 116.78 8.13 117.63 7.28C118.48 6.43 118.48 5.05 117.63 4.2L116.09 2.66Z" fill="white"/>
<path d="M136.95 12.67H136.33L136.95 9.95999H133.67V25H136.95V17.33C136.95 14.43 139.04 12.76 142.43 13.31V9.64999C139.75 9.60999 137.97 10.85 136.95 12.67Z" fill="white"/>
<path d="M27.22 0H6.8C3.04446 0 0 3.04446 0 6.8V27.22C0 30.9755 3.04446 34.02 6.8 34.02H27.22C30.9755 34.02 34.02 30.9755 34.02 27.22V6.8C34.02 3.04446 30.9755 0 27.22 0Z" fill="white"/>
<path d="M22.02 12.9L17.01 7.89001L12 12.9C9.22999 15.67 9.22999 20.15 12 22.92C14.77 25.69 19.25 25.69 22.02 22.92C24.79 20.15 24.79 15.67 22.02 12.9Z" fill="#3B3E29"/>
</g>
<defs>
<clipPath id="clip0_199_413">
<rect width="158.89" height="34.02" fill="white"/>
</clipPath>
</defs>
</svg>
